<?xml version="1.0" encoding="UTF-8" standalone="no"?>
<svg width="82px" height="17px" viewBox="0 0 82 17" version="1.1" xmlns="http://www.w3.org/2000/svg" xmlns:xlink="http://www.w3.org/1999/xlink" xmlns:sketch="http://www.bohemiancoding.com/sketch/ns">
    <!-- Generator: Sketch Beta 3.3 (11970) - http://www.bohemiancoding.com/sketch -->
    <title>facebook-letters</title>
    <desc>Created with Sketch Beta.</desc>
    <defs></defs>
    <g id="Art" stroke="none" stroke-width="1" fill="none" fill-rule="evenodd" sketch:type="MSPage">
        <g id="Artboard-2" sketch:type="MSArtboardGroup" transform="translate(-754.000000, -722.000000)" fill="#FFFFFF">
            <g id="facebook-letters" sketch:type="MSLayerGroup" transform="translate(754.000000, 722.000000)">
                <path d="M43.9960742,8.13334609 C43.2973568,8.13334609 42.7936837,8.36242748 42.2831266,8.59590694 L42.2831266,13.8772086 C42.772267,13.9238662 43.0525954,13.9238662 43.5168772,13.9238662 C45.1938755,13.9238662 45.4237218,13.1559272 45.4237218,12.0835662 L45.4237218,9.56099361 C45.4237218,8.76934337 45.1609857,8.13334609 43.9960742,8.13334609 L43.9960742,8.13334609 Z M32.8592376,7.84517772 C31.6958559,7.84517772 31.4300602,8.48404333 31.4300602,9.2749287 L31.4300602,9.71932368 L34.2866939,9.71932368 L34.2866939,9.2749287 C34.286694,8.48404333 34.0212808,7.84517772 32.8592376,7.84517772 L32.8592376,7.84517772 Z M11.2850466,13.3425579 C11.2850466,13.9682293 11.5802901,14.2933031 12.2319675,14.2933031 C12.9310673,14.2933031 13.3448671,14.065369 13.8550417,13.8313159 L13.8550417,12.5784432 L12.3264301,12.5784432 C11.6030453,12.5784432 11.2850466,12.713062 11.2850466,13.3425579 L11.2850466,13.3425579 Z M54.8294449,8.13334609 C53.664151,8.13334609 53.2602947,8.76934337 53.2602947,9.56099365 L53.2602947,12.4507084 C53.2602947,13.2446533 53.664151,13.8825628 54.8294449,13.8825628 C55.9916793,13.8825628 56.3985952,13.2446533 56.3985952,12.4507084 L56.3985952,9.56099365 C56.3985952,8.76934337 55.9916793,8.13334609 54.8294449,8.13334609 L54.8294449,8.13334609 Z M5.57388269,16.5825874 L2.14817866,16.5825874 L2.14817866,8.2903376 L0.436187153,8.2903376 L0.436187153,5.43293904 L2.14817866,5.43293904 L2.14817866,3.71731433 C2.14817866,1.38615287 3.1144127,0 5.86033006,0 L8.14655485,0 L8.14655485,2.85797224 L6.71756873,2.85797224 C5.64845841,2.85797224 5.5780895,3.25723931 5.5780895,4.00261441 L5.57388265,5.43293908 L8.16261731,5.43293908 L7.85972503,8.29033764 L5.57388265,8.29033764 L5.57388265,16.5825874 L5.57388269,16.5825874 Z M17.2820843,16.604004 L14.4269804,16.604004 L14.3032611,15.8819578 C12.999524,16.604004 11.8359511,16.7210306 11.0683945,16.7210306 C8.9745369,16.7210306 7.85972503,15.322066 7.85972503,13.3876857 C7.85972503,11.1052853 9.1602114,10.2906887 11.4869748,10.2906887 L13.8550417,10.2906887 L13.8550417,9.79734141 C13.8550417,8.63262116 13.7215702,8.2903376 11.9300313,8.2903376 L9.00073405,8.2903376 L9.28718141,5.43293904 L12.4891582,5.43293904 C16.4202563,5.43293904 17.2820843,6.67472088 17.2820843,9.82028781 L17.2820843,16.604004 L17.2820843,16.604004 Z M26.9914646,8.49991456 C25.2146495,8.1954925 24.7044749,8.12856556 23.8495308,8.12856556 C22.3138441,8.12856556 21.8497534,8.46740719 21.8497534,9.77133548 L21.8497534,12.2380718 C21.8497534,13.5421914 22.3138441,13.8825628 23.8495308,13.8825628 C24.7044749,13.8825628 25.2146495,13.8144885 26.9914646,13.5085367 L26.9914646,16.2957576 C25.435126,16.6445426 24.4212783,16.7363282 23.5642308,16.7363282 C19.8861166,16.7363282 18.4240494,14.8019479 18.4240494,12.0078431 L18.4240494,10.0061535 C18.4240494,7.20956285 19.8861165,5.27193188 23.5642308,5.27193188 C24.4212783,5.27193188 25.4351261,5.36409987 26.9914646,5.71441466 L26.9914646,8.49991456 L26.9914646,8.49991456 Z M37.712398,12.0078432 L31.4300603,12.0078432 L31.4300603,12.2380719 C31.4300603,13.5421914 31.8945334,13.8825628 33.4298377,13.8825628 C34.8100628,13.8825628 35.6523863,13.8144885 37.4259506,13.5085367 L37.4259506,16.2957576 C35.7154889,16.6445427 34.824213,16.7363282 33.1458762,16.7363282 C29.4675707,16.7363282 28.0047387,14.801948 28.0047387,12.0078432 L28.0047387,9.71932372 C28.0047387,7.27457763 29.0901027,5.27193192 32.8592376,5.27193192 C36.6283725,5.27193192 37.712398,7.25124881 37.712398,9.71932372 L37.712398,12.0078432 L37.712398,12.0078432 Z M48.8488522,12.0606198 C48.8488522,14.7614093 48.0770888,16.730974 43.400998,16.730974 C41.7125265,16.730974 40.7220076,16.5825874 38.8583787,16.2957576 L38.8583787,0.858003583 L42.2831266,0.286447365 L42.2831266,5.68649658 C43.0231475,5.41152242 43.9811591,5.27193188 44.8531217,5.27193188 C48.2782521,5.27193188 48.8488522,6.80742744 48.8488522,9.2749287 L48.8488522,12.0606198 L48.8488522,12.0606198 Z M59.8271675,12.1195155 C59.8271675,14.4493385 58.8653315,16.7087925 54.8409181,16.7087925 C50.8145924,16.7087925 49.8347818,14.4493385 49.8347818,12.1195155 L49.8347818,9.87000497 C49.8347818,7.53903473 50.8145924,5.27919828 54.8409181,5.27919828 C58.8653315,5.27919828 59.8271675,7.53903473 59.8271675,9.87000497 L59.8271675,12.1195155 L59.8271675,12.1195155 Z M70.7978341,12.1195155 C70.7978341,14.4493385 69.8348508,16.7087925 65.8112022,16.7087925 C61.7848766,16.7087925 60.805066,14.4493385 60.805066,12.1195155 L60.805066,9.87000497 C60.805066,7.53903473 61.7848766,5.27919828 65.8112022,5.27919828 C69.8348508,5.27919828 70.7978341,7.53903473 70.7978341,9.87000497 L70.7978341,12.1195155 L70.7978341,12.1195155 Z M82.0564778,16.5825874 L78.3441351,16.5825874 L75.2046872,11.3416331 L75.2046872,16.5825874 L71.778792,16.5825874 L71.778792,0.858003583 L75.2046872,0.286447365 L75.2046872,10.409245 L78.3441351,5.43293904 L82.0564778,5.43293904 L78.6290528,10.8635834 L82.0564778,16.5825874 L82.0564778,16.5825874 Z M65.799729,8.13334609 C64.6363473,8.13334609 64.232491,8.76934337 64.232491,9.56099365 L64.232491,12.4507084 C64.232491,13.2446533 64.6363473,13.8825628 65.799729,13.8825628 C66.961581,13.8825628 67.3727037,13.2446533 67.3727037,12.4507084 L67.3727037,9.56099365 C67.3727037,8.76934337 66.961581,8.13334609 65.799729,8.13334609 L65.799729,8.13334609 Z" id="Shape" sketch:type="MSShapeGroup"></path>
            </g>
        </g>
    </g>
</svg>