<?xml version="1.0" encoding="UTF-8" standalone="no"?>
<svg width="37px" height="16px" viewBox="0 0 37 16" version="1.1" xmlns="http://www.w3.org/2000/svg" xmlns:xlink="http://www.w3.org/1999/xlink" xmlns:sketch="http://www.bohemiancoding.com/sketch/ns">
    <!-- Generator: Sketch Beta 3.3 (11970) - http://www.bohemiancoding.com/sketch -->
    <title>soundcloud-short</title>
    <desc>Created with Sketch Beta.</desc>
    <defs></defs>
    <g id="Art" stroke="none" stroke-width="1" fill="none" fill-rule="evenodd" sketch:type="MSPage">
        <g id="Artboard-2" sketch:type="MSArtboardGroup" transform="translate(-418.000000, -758.000000)" fill="#FFFFFF">
            <g id="soundcloud-short" sketch:type="MSLayerGroup" transform="translate(418.000000, 758.000000)">
                <path d="M0.417900783,9.42517073 C0.340908616,9.42517073 0.279791123,9.48370732 0.269869452,9.56721951 L0,11.5828293 L0.269869452,13.5637073 C0.279791123,13.6472195 0.340908616,13.7053659 0.417900783,13.7053659 C0.492511749,13.7053659 0.553232376,13.6476098 0.565138381,13.5644878 L0.565138381,13.5644878 L0.565138381,13.5640976 C0.565138381,13.5640976 0.565138381,13.5640976 0.565138381,13.5644878 L0.885013055,11.5828293 L0.565138381,9.56682927 C0.553629243,9.48370732 0.492114883,9.42517073 0.417900783,9.42517073 L0.417900783,9.42517073 Z M1.93551958,8.32390244 C1.92281984,8.23726829 1.85971802,8.17756098 1.78193211,8.17756098 C1.70374935,8.17756098 1.63906005,8.23921951 1.62834465,8.32390244 C1.62834465,8.32468293 1.26560836,11.5828293 1.26560836,11.5828293 L1.62834465,14.769561 C1.63866319,14.8550244 1.70335248,14.9166829 1.78193211,14.9166829 C1.85932115,14.9166829 1.92242298,14.8565854 1.93512272,14.7703415 L2.34786423,11.5828293 L1.93551958,8.32390244 L1.93551958,8.32390244 Z M7.65198956,5.31785366 C7.50316449,5.31785366 7.38013577,5.43765854 7.37299217,5.58985366 L7.08407311,11.585561 L7.37299217,15.4602927 C7.38053264,15.6117073 7.50316449,15.731122 7.65198956,15.731122 C7.80002089,15.731122 7.92265274,15.6113171 7.93138381,15.4595122 L7.93138381,15.4606829 L8.25800522,11.585561 L7.93138381,5.58985366 C7.92265274,5.43765854 7.80002089,5.31785366 7.65198956,5.31785366 L7.65198956,5.31785366 Z M4.69334726,7.4017561 C4.57904961,7.4017561 4.4857859,7.4915122 4.47665796,7.61131707 L4.15122715,11.584 L4.47665796,15.4275122 C4.48538903,15.5465366 4.57904961,15.6362927 4.69334726,15.6362927 C4.80645431,15.6362927 4.89971802,15.5465366 4.90963969,15.4275122 L5.27951958,11.584 L4.90963969,7.61053659 C4.89971802,7.4915122 4.80645431,7.4017561 4.69334726,7.4017561 L4.69334726,7.4017561 Z M10.6586527,15.7307317 C10.8431958,15.7307317 10.9932115,15.5843902 11.000752,15.3970732 L11.2841149,11.5875122 L11.0011488,3.60507317 C10.9936084,3.4177561 10.8435927,3.27141463 10.6590496,3.27141463 C10.4729191,3.27141463 10.3225065,3.41814634 10.3165535,3.60546341 C10.3165535,3.60585366 10.0653368,11.587122 10.0653368,11.587122 L10.3165535,15.3982439 C10.3225065,15.584 10.4729191,15.7307317 10.6586527,15.7307317 L10.6586527,15.7307317 Z M16.8140574,15.7486829 C17.0680522,15.7486829 17.2775979,15.5430244 17.2823603,15.2901463 L17.2823603,15.292878 L17.2823603,15.2901463 L17.48,11.5898537 L17.2823603,2.37073171 C17.2779948,2.1182439 17.0680522,1.91219512 16.8140574,1.91219512 C16.5596658,1.91219512 16.3497232,2.11785366 16.3457546,2.37112195 L16.1691488,11.5867317 C16.1691488,11.5925854 16.3457546,15.2924878 16.3457546,15.2924878 C16.3497232,15.5430244 16.5600627,15.7486829 16.8140574,15.7486829 L16.8140574,15.7486829 Z M13.7129399,15.7342439 C13.9339948,15.7342439 14.112188,15.5598049 14.118141,15.3373659 L14.118141,15.3400976 L14.3586423,11.5882927 L14.1177441,3.54809756 C14.1117911,3.32565854 13.9335979,3.15160976 13.7125431,3.15160976 C13.4899008,3.15160976 13.3117076,3.32565854 13.3069452,3.54809756 L13.0930339,11.5886829 L13.307342,15.3397073 C13.3121044,15.5598049 13.4902977,15.7342439 13.7129399,15.7342439 L13.7129399,15.7342439 Z M6.16691384,15.699122 C6.29827676,15.699122 6.40463708,15.5957073 6.41455875,15.4595122 L6.76300783,11.584 L6.41455875,7.89736585 C6.40503394,7.76117073 6.29867363,7.65853659 6.16691384,7.65853659 C6.03356658,7.65853659 5.92720627,7.76195122 5.91887206,7.89892683 L5.61209399,11.584 L5.91887206,15.459122 C5.92760313,15.5957073 6.03356658,15.699122 6.16691384,15.699122 L6.16691384,15.699122 Z M3.23168668,15.4868293 C3.32772846,15.4868293 3.40551436,15.4122927 3.41662663,15.3092683 L3.80793734,11.5832195 L3.4170235,7.71668293 C3.40551436,7.61326829 3.32772846,7.53873171 3.23168668,7.53873171 C3.13445431,7.53873171 3.05666841,7.61365854 3.04674674,7.71668293 C3.04674674,7.71707317 2.70226632,11.5832195 2.70226632,11.5832195 L3.04674674,15.3084878 C3.05627154,15.4119024 3.13405744,15.4868293 3.23168668,15.4868293 L3.23168668,15.4868293 Z M15.2575457,3.4142439 C15.0174413,3.4142439 14.8249608,3.60195122 14.8201984,3.84234146 L14.6249399,11.5890732 L14.8201984,15.3166829 C14.8249608,15.5539512 15.0170444,15.7416585 15.2575457,15.7416585 C15.4972533,15.7416585 15.6885431,15.5543415 15.6940992,15.3139512 L15.6940992,15.3170732 L15.9131697,11.5894634 L15.6940992,3.84156098 C15.6885431,3.60195122 15.4972533,3.4142439 15.2575457,3.4142439 L15.2575457,3.4142439 Z M9.14976501,15.7385366 C9.31565535,15.7385366 9.45257441,15.6054634 9.46051175,15.4357073 L9.76530548,11.5867317 L9.46051175,4.21970732 C9.45217755,4.04956098 9.31565535,3.91687805 9.14976501,3.91687805 C8.98228721,3.91687805 8.84576501,4.04995122 8.83862141,4.21970732 C8.83862141,4.22009756 8.56875196,11.5867317 8.56875196,11.5867317 L8.83901828,15.4372683 C8.84576501,15.6054634 8.98228721,15.7385366 9.14976501,15.7385366 L9.14976501,15.7385366 Z M12.553295,15.3752195 L12.553295,15.3732683 L12.8152272,11.5879024 L12.553295,3.33658537 C12.5469452,3.13170732 12.3826423,2.97092683 12.1798433,2.97092683 C11.9758538,2.97092683 11.8115509,3.13131707 11.8059948,3.33658537 L11.5734308,11.5875122 L11.8063916,15.3748293 C11.8119478,15.5777561 11.9762507,15.7381463 12.1798433,15.7381463 C12.3830392,15.7381463 12.5465483,15.5777561 12.553295,15.3736585 L12.553295,15.3752195 L12.553295,15.3752195 Z M32.364094,6.83160976 C31.7422037,6.83160976 31.1488877,6.95531707 30.6083551,7.17814634 C30.2472063,3.1555122 26.8166893,0 22.6321253,0 C21.6082089,0 20.6100888,0.198243902 19.7286475,0.533463415 C19.3861514,0.663804878 19.2948721,0.79804878 19.2916971,1.05834146 L19.2916971,15.2241951 C19.2952689,15.4973659 19.5107676,15.724878 19.7818277,15.7518049 C19.7933368,15.7529756 32.2827363,15.7592195 32.3636971,15.7592195 C34.8703081,15.7592195 36.9026632,13.7607805 36.9026632,11.2956098 C36.9026632,8.83043902 34.870705,6.83160976 32.364094,6.83160976 L32.364094,6.83160976 Z M18.3638225,1.04585366 C18.0911749,1.04585366 17.867342,1.26595122 17.8633734,1.53639024 L17.6585901,11.5910244 L17.8637702,15.2401951 C17.867342,15.5067317 18.0911749,15.726439 18.3638225,15.726439 C18.6356762,15.726439 18.8595091,15.5067317 18.8634778,15.2362927 L18.8634778,15.2405854 L19.0861201,11.5910244 L18.8634778,1.53560976 C18.8595091,1.26595122 18.6356762,1.04585366 18.3638225,1.04585366 L18.3638225,1.04585366 Z" id="Shape" sketch:type="MSShapeGroup"></path>
            </g>
        </g>
    </g>
</svg>